<?xml version="1.0" encoding="UTF-8"?>
<svg width="6px" height="9px" viewBox="0 0 6 9" version="1.1" xmlns="http://www.w3.org/2000/svg" xmlns:xlink="http://www.w3.org/1999/xlink">
    <!-- Generator: Sketch 52.2 (67145) - http://www.bohemiancoding.com/sketch -->
    <title>Combined Shape</title>
    <desc>Created with Sketch.</desc>
    <g id="Page-2" stroke="none" stroke-width="1" fill="none" fill-rule="evenodd">
        <g id="辅助阅读" transform="translate(-170.000000, -1287.000000)" fill="#999999">
            <g id="Group-2" transform="translate(101.000000, 1277.000000)">
                <g id="Group-3" transform="translate(15.000000, 6.000000)">
                    <path d="M60,8 L60,9 L59,9 L59,10 L58,10 L58,11 L56,11 L56,10 L55,10 L55,9 L54,9 L54,8 L53,8 L53,6 L54,6 L54,7 L55,7 L55,8 L56,8 L56,9 L58,9 L58,8 L59,8 L59,7 L60,7 L60,6 L61,6 L61,8 L60,8 Z" id="Combined-Shape" transform="translate(57.000000, 8.500000) scale(-1, 1) rotate(90.000000) translate(-57.000000, -8.500000) "></path>
                </g>
            </g>
        </g>
    </g>
</svg>